<svg width="38.000000" height="18.000000" viewBox="0 0 38 18" fill="none" xmlns="http://www.w3.org/2000/svg" xmlns:xlink="http://www.w3.org/1999/xlink">
	<desc>
			Created with Pixso.
	</desc>
	<defs>
		<clipPath id="clip1_367">
			<rect id="Frame" rx="-0.500000" width="37.000000" height="17.000000" transform="translate(0.500000 0.500000)" fill="white" fill-opacity="0"/>
		</clipPath>
	</defs>
	<rect id="Frame" rx="-0.500000" width="37.000000" height="17.000000" transform="translate(0.500000 0.500000)" fill="#FFFFFF" fill-opacity="0"/>
	<g clip-path="url(#clip1_367)">
		<path id="Vector" d="M19 9C20.05 6.95 21.46 5.12 23.16 3.57C24.23 2.5 25.6 1.77 27.08 1.48C28.57 1.18 30.11 1.33 31.51 1.91C32.91 2.49 34.11 3.47 34.95 4.74C35.8 6 36.25 7.48 36.25 9C36.25 10.51 35.8 11.99 34.95 13.25C34.11 14.52 32.91 15.5 31.51 16.08C30.11 16.66 28.57 16.81 27.08 16.51C25.6 16.22 24.23 15.49 23.16 14.42C21.46 12.87 20.05 11.04 19 9C17.94 6.95 16.53 5.12 14.83 3.57C13.76 2.5 12.39 1.77 10.91 1.48C9.42 1.18 7.88 1.33 6.48 1.91C5.08 2.49 3.88 3.47 3.04 4.74C2.19 6 1.74 7.48 1.74 9C1.74 10.51 2.19 11.99 3.04 13.25C3.88 14.52 5.08 15.5 6.48 16.08C7.88 16.66 9.42 16.81 10.91 16.51C12.39 16.22 13.76 15.49 14.83 14.42C16.53 12.87 17.94 11.04 19 9" stroke="#000000" stroke-opacity="1.000000" stroke-width="1.000000" stroke-linejoin="round"/>
	</g>
</svg>
