<svg width="34.000000" height="34.000000" viewBox="0 0 34 34" fill="none" xmlns="http://www.w3.org/2000/svg" xmlns:xlink="http://www.w3.org/1999/xlink">
	<desc>
			Created with Pixso.
	</desc>
	<defs>
		<clipPath id="clip1_388">
			<rect id="Frame" rx="-0.500000" width="19.000000" height="19.000000" transform="translate(7.500000 7.500000)" fill="white" fill-opacity="0"/>
		</clipPath>
	</defs>
	<rect id="Rectangle 37030" rx="17.000000" width="34.000000" height="34.000000" fill="#F4F3EE" fill-opacity="1.000000"/>
	<rect id="Rectangle 37030" x="0.750000" y="0.750000" rx="16.250000" width="32.500000" height="32.500000" stroke="#000000" stroke-opacity="1.000000" stroke-width="1.500000"/>
	<rect id="Frame" rx="-0.500000" width="19.000000" height="19.000000" transform="translate(7.500000 7.500000)" fill="#FFFFFF" fill-opacity="0"/>
	<g clip-path="url(#clip1_388)">
		<path id="Vector" d="M23.66 24.5L23.66 22.83C23.66 21.94 23.31 21.1 22.69 20.47C22.06 19.85 21.21 19.5 20.33 19.5L13.66 19.5C12.78 19.5 11.93 19.85 11.3 20.47C10.68 21.1 10.33 21.94 10.33 22.83L10.33 24.5" stroke="#1C1C1C" stroke-opacity="1.000000" stroke-width="1.500000" stroke-linejoin="round" stroke-linecap="square"/>
		<path id="Vector" d="M14.64 10.47C14.01 11.1 13.66 11.94 13.66 12.83C13.66 13.71 14.01 14.56 14.64 15.19C15.26 15.81 16.11 16.16 17 16.16C17.88 16.16 18.73 15.81 19.35 15.19C19.98 14.56 20.33 13.71 20.33 12.83C20.33 11.94 19.98 11.1 19.35 10.47C18.73 9.85 17.88 9.5 17 9.5C16.11 9.5 15.26 9.85 14.64 10.47Z" stroke="#1C1C1C" stroke-opacity="1.000000" stroke-width="1.500000" stroke-linejoin="round"/>
	</g>
</svg>
