<svg width="110.000000" height="17.000000" viewBox="0 0 110 17" fill="none" xmlns="http://www.w3.org/2000/svg" xmlns:xlink="http://www.w3.org/1999/xlink">
	<desc>
			Created with Pixso.
	</desc>
	<defs/>
	<path id="MAILFIT" d="M18.11 17L18.11 6.52L18.2 4.21L17.35 6.49L12.61 17L9.01 17L4.3 6.52L3.42 4.16L3.51 6.51L3.51 17L0 17L0 0L5.3 0L10.14 11.12L10.97 13.92L11.81 11.12L16.65 0L21.94 0L21.94 17L18.11 17ZM38.36 13.68L29.2 13.68L27.78 17L23.51 17L31.36 0L36.35 0L44.22 17L39.79 17L38.36 13.68ZM45.75 17L45.75 0L49.86 0L49.86 17L45.75 17ZM53.24 17L53.24 0L57.34 0L57.34 13.66L68.01 13.66L68.01 17L53.24 17ZM70.01 17L70.01 0L84.91 0L84.91 3.32L74.12 3.32L74.12 8.01L83.44 8.01L83.44 11.28L74.12 11.28L74.12 17L70.01 17ZM86.86 17L86.86 0L90.97 0L90.97 17L86.86 17ZM99.24 17L99.24 3.4L92.57 3.4L92.57 0L110 0L110 3.4L103.35 3.4L103.35 17L99.24 17ZM30.5 10.66L37.06 10.66L33.78 3.01L30.5 10.66Z" fill="#151515" fill-opacity="1.000000" fill-rule="evenodd"/>
</svg>
